<svg width="23" height="20" viewBox="0 0 23 20" fill="none" xmlns="http://www.w3.org/2000/svg">
<path d="M0.29505 0.0829296C0.0894091 0.218235 0 0.38409 0 0.654701C0 0.92531 0.0894091 1.09117 0.29505 1.22647C0.415753 1.30503 0.536455 1.3094 2.27993 1.3094H4.13517L5.33326 6.58191C5.99041 9.48005 6.52687 11.8675 6.52687 11.8937C6.52687 11.9155 6.42405 11.9941 6.29887 12.0683C5.99935 12.2385 5.70877 12.5659 5.53443 12.9194C5.41372 13.1638 5.39137 13.2642 5.37349 13.6439C5.36008 13.9887 5.36902 14.1371 5.43161 14.3205C5.63725 14.9446 6.11111 15.416 6.73698 15.6299C6.93815 15.6953 7.11697 15.7128 7.64001 15.7172H8.2927L8.06024 15.8001C7.21979 16.0925 6.70569 16.8083 6.70569 17.6769C6.70569 18.8073 7.55954 19.641 8.71739 19.641C9.87524 19.641 10.7291 18.8073 10.7291 17.6769C10.7291 16.8083 10.215 16.0925 9.37455 15.8001C9.14656 15.7215 9.19573 15.7172 13.4561 15.7172C17.7164 15.7172 17.7656 15.7215 17.5376 15.8001C16.6972 16.0925 16.1831 16.8083 16.1831 17.6769C16.1831 18.8073 17.0369 19.641 18.1948 19.641C19.3526 19.641 20.2065 18.8073 20.2065 17.6769C20.2065 16.804 19.6924 16.0925 18.8474 15.8001L18.6195 15.7172H19.2006C19.6924 15.7128 19.7997 15.6997 19.9114 15.6299C20.1171 15.4946 20.2065 15.3287 20.2065 15.0581C20.2065 14.8006 20.1215 14.6304 19.9338 14.4994C19.8354 14.4296 19.3526 14.4252 13.5231 14.4034L7.21979 14.3816L7.06332 14.2855C6.63863 14.028 6.6431 13.4213 7.07226 13.1944C7.21085 13.1202 7.5506 13.1158 13.5053 13.1027L19.7952 13.094L19.9785 12.9281L20.1618 12.7666L21.5253 8.10954C22.4462 4.96699 22.8887 3.38261 22.8887 3.24294C22.8887 3.10328 22.8574 2.99416 22.7904 2.89377C22.5803 2.59698 23.2643 2.6188 14.1311 2.6188H5.8563L5.83395 2.51841C5.82054 2.46604 5.71324 1.99029 5.59254 1.46216C5.47184 0.934038 5.35114 0.449562 5.32878 0.388456C5.30196 0.322987 5.20361 0.213869 5.10973 0.135305L4.93986 1.90735e-06H2.68227C0.545396 1.90735e-06 0.415753 0.00436592 0.29505 0.0829296ZM21.2794 3.98057C21.2749 4.01113 20.7653 5.77445 20.1439 7.90004L19.0129 11.7628L13.474 11.7715L7.93506 11.7846L7.04991 7.88695C6.56263 5.74826 6.16923 3.98057 6.16923 3.95875C6.16923 3.94129 9.57125 3.9282 13.7243 3.9282C19.7415 3.9282 21.2794 3.94129 21.2794 3.98057ZM9.04821 17.1488C9.24044 17.2753 9.34326 17.4543 9.34326 17.6769C9.34326 18.0261 9.07503 18.2879 8.71739 18.2879C8.35976 18.2879 8.09153 18.0261 8.09153 17.6769C8.09153 17.3277 8.35976 17.0658 8.71739 17.0658C8.83809 17.0658 8.96774 17.1007 9.04821 17.1488ZM18.5256 17.1488C18.7178 17.2753 18.8206 17.4543 18.8206 17.6769C18.8206 18.0261 18.5524 18.2879 18.1948 18.2879C17.8371 18.2879 17.5689 18.0261 17.5689 17.6769C17.5689 17.3277 17.8371 17.0658 18.1948 17.0658C18.3155 17.0658 18.4451 17.1007 18.5256 17.1488Z" fill="#1299E8"/>
</svg>
