<svg width="15" height="15" viewBox="0 0 15 15" fill="none" xmlns="http://www.w3.org/2000/svg">
<path d="M0.820195 0.0229063C0.614264 0.0762959 0.393079 0.213584 0.255791 0.373753C-0.0187841 0.690277 0.000283577 0.186889 0.000283577 7.19618C0.000283577 14.2055 -0.0187841 13.7021 0.255791 14.0186C0.328248 14.1063 0.476977 14.2245 0.587569 14.2817L0.78206 14.3847L5.86551 14.3962C11.399 14.4076 11.3265 14.4076 12.0129 14.1902C13.1265 13.8394 14.0379 13.0347 14.5528 11.944C14.6481 11.7457 14.7701 11.4178 14.8235 11.2118C14.9151 10.8724 14.9265 10.7771 14.9265 10.1517C14.9227 9.53389 14.9151 9.42711 14.8235 9.09151C14.7091 8.66821 14.4612 8.11906 14.2248 7.7644C13.8625 7.22669 13.1875 6.6394 12.5926 6.34195C12.2761 6.18178 11.7346 6.01398 11.3723 5.96059L11.0405 5.91483L11.0214 3.35976C11.0024 1.04494 10.9947 0.793242 10.9375 0.663582C10.8231 0.411888 10.6477 0.225024 10.4189 0.114431L10.2015 0.00765228L5.56806 2.47955e-05C3.02061 2.47955e-05 0.885026 0.00765228 0.820195 0.0229063ZM10.1405 0.667396C10.213 0.705531 10.3045 0.797056 10.3426 0.869514C10.4074 0.991547 10.4113 1.13646 10.4036 3.45891L10.3922 5.91864L10.1519 5.94534C9.89643 5.97203 9.33965 6.10932 9.22525 6.16653C9.11847 6.22373 9.11465 6.2161 9.11465 5.99492C9.11465 5.83475 9.09559 5.7661 9.03838 5.7089C8.96593 5.63644 8.91254 5.63263 8.17271 5.63263C7.1278 5.63263 7.20788 5.56017 7.20788 6.52118V7.24194L7.31466 7.3411L7.42525 7.44025L7.25364 7.67288C6.92568 8.11906 6.60916 8.86651 6.53288 9.37753C6.50619 9.54914 6.49856 9.49194 6.48331 9.02287C6.45661 8.24872 6.53288 8.30211 5.50704 8.30211H4.69476L4.61848 8.40126C4.54603 8.4966 4.5384 8.5538 4.5384 9.18304C4.5384 9.55295 4.54984 9.88854 4.56128 9.92287C4.61848 10.0678 4.77103 10.0945 5.52229 10.0945C6.18967 10.0945 6.25068 10.0868 6.34221 10.0182C6.3956 9.97626 6.44899 9.91143 6.45661 9.87329C6.46424 9.83897 6.46805 9.8771 6.45661 9.96482C6.44899 10.0487 6.46043 10.308 6.48331 10.5445C6.59771 11.7801 7.24983 12.9127 8.24517 13.6144L8.47398 13.7745L4.75196 13.786C0.648586 13.7936 0.839263 13.8051 0.686721 13.5572C0.610451 13.4313 0.610451 13.3818 0.610451 7.19618C0.610451 1.01061 0.610451 0.961039 0.686721 0.835192C0.839263 0.587311 0.568502 0.602565 5.51085 0.598752C9.79728 0.598752 10.0185 0.602565 10.1405 0.667396ZM8.50449 6.37246C8.50449 6.48686 8.47779 6.52118 8.28712 6.65847C8.13839 6.76525 8.02398 6.81483 7.9439 6.81483H7.81805V6.52881V6.2428H8.16127H8.50449V6.37246ZM11.2007 6.55169C12.3676 6.70805 13.4545 7.50508 13.9769 8.58813C14.3812 9.41948 14.446 10.411 14.16 11.269C13.607 12.9203 11.9138 13.9995 10.2549 13.7555C8.74093 13.5343 7.56635 12.4894 7.185 11.025C7.04771 10.4949 7.0439 9.81609 7.18119 9.29363C7.40237 8.44702 7.84093 7.77584 8.51211 7.27245C9.0727 6.84915 9.56465 6.65085 10.335 6.53263C10.5333 6.50593 10.9146 6.50974 11.2007 6.55169ZM5.87314 9.19829V9.48431H5.51085H5.14857V9.19829V8.91228H5.51085H5.87314V9.19829Z" fill="#FBFBFB"/>
<path d="M2.03669 1.75042C1.88034 1.82288 1.8689 1.91822 1.8689 3.23389C1.8689 4.55338 1.88415 4.6716 2.04051 4.73261C2.07483 4.74405 3.63457 4.75549 5.50702 4.75549C8.89726 4.75549 8.91251 4.75549 9.01548 4.67541L9.11463 4.59914V3.23008V1.86101L9.01548 1.78474C8.91251 1.70466 8.89726 1.70466 5.51464 1.70847C3.25703 1.70847 2.09008 1.72373 2.03669 1.75042ZM8.50446 3.23008V4.14533H5.49176H2.47906V3.23008V2.31483H5.49176H8.50446V3.23008Z" fill="#FBFBFB"/>
<path d="M1.97927 5.70508C1.89156 5.77754 1.88775 5.79661 1.87631 6.45254C1.86105 7.18474 1.88393 7.31058 2.0441 7.38304C2.10512 7.40974 2.4102 7.42499 2.87545 7.42499C3.86698 7.42499 3.7907 7.49745 3.80596 6.55169L3.8174 5.8233L3.72206 5.72796L3.62672 5.63262H2.84876C2.13563 5.63262 2.05936 5.64025 1.97927 5.70508ZM3.20342 6.52881V6.81482H2.84113H2.47885V6.52881V6.24279H2.84113H3.20342V6.52881Z" fill="#FBFBFB"/>
<path d="M4.61865 5.73182C4.54238 5.82716 4.53857 5.88436 4.53857 6.53648C4.53857 7.48987 4.46992 7.42504 5.48814 7.42504C6.23941 7.42504 6.25085 7.42504 6.35763 7.33351L6.46441 7.24199L6.47585 6.63945C6.4911 5.96063 6.47203 5.81191 6.36525 5.70513C6.29661 5.63648 6.23559 5.63267 5.49577 5.63267H4.69492L4.61865 5.73182ZM5.87331 6.52885V6.81487H5.51102H5.14873V6.52885V6.24284H5.51102H5.87331V6.52885Z" fill="#FBFBFB"/>
<path d="M1.96057 8.3822C1.89574 8.45466 1.88812 8.53856 1.87668 9.16398L1.86523 9.86567L1.97964 9.98008L2.09023 10.0945H2.81862C3.26862 10.0945 3.57752 10.0792 3.63472 10.0525C3.79107 9.98008 3.81396 9.86948 3.81396 9.16398C3.81396 8.55381 3.80633 8.49661 3.73387 8.40127L3.6576 8.30212H2.84532C2.06735 8.30212 2.02922 8.30593 1.96057 8.3822ZM3.20379 9.1983V9.48432H2.8415H2.47921V9.1983V8.91228H2.8415H3.20379V9.1983Z" fill="#FBFBFB"/>
<path d="M2.07483 10.9716C1.88796 11.0478 1.8689 11.1317 1.8689 11.8563C1.8689 12.5161 1.87271 12.5351 1.96042 12.6381L2.05195 12.7449H2.84135H3.63075L3.72228 12.6381C3.80999 12.5351 3.8138 12.5161 3.8138 11.8487C3.8138 11.1813 3.80999 11.1623 3.72228 11.0593L3.63075 10.9525L2.89093 10.9449C2.48669 10.9411 2.11678 10.9525 2.07483 10.9716ZM3.20364 11.8487V12.1538H2.84135H2.47906V11.8487V11.5436H2.84135H3.20364V11.8487Z" fill="#FBFBFB"/>
<path d="M4.72495 10.9754C4.67156 10.9945 4.60673 11.0555 4.58003 11.1089C4.52283 11.2386 4.52283 12.4589 4.58385 12.5924C4.65249 12.7411 4.8241 12.7716 5.59444 12.7564C6.52876 12.7411 6.46393 12.8059 6.46393 11.8487C6.46393 10.8839 6.53257 10.9564 5.5563 10.9449C5.14825 10.9411 4.78215 10.9526 4.72495 10.9754ZM5.87283 11.8487V12.1538H5.51054H5.14825V11.8487V11.5436H5.51054H5.87283V11.8487Z" fill="#FBFBFB"/>
<path d="M10.5755 7.57755C10.4573 7.62713 10.4115 7.73391 10.4115 7.95128V8.13814L10.2285 8.16484C9.81278 8.21823 9.40855 8.54238 9.2827 8.91992C9.1988 9.17161 9.2255 9.59491 9.33228 9.80847C9.43524 10.003 9.66405 10.2318 9.85855 10.3347C9.98439 10.3996 10.1102 10.4186 10.5869 10.4377C11.056 10.4568 11.1857 10.4758 11.2886 10.5369C11.6662 10.758 11.6776 11.1737 11.3115 11.4445C11.2238 11.5131 11.1399 11.5284 10.8005 11.536C10.5717 11.5436 10.3352 11.5322 10.2552 11.5093C10.0721 11.4521 9.93482 11.2881 9.90049 11.0822C9.86236 10.8572 9.78609 10.7809 9.5916 10.7809C9.37041 10.7809 9.29414 10.8725 9.30177 11.1241C9.30558 11.3987 9.43524 11.6695 9.6488 11.8602C9.82804 12.0241 10.1293 12.1538 10.32 12.1538C10.4039 12.1538 10.4115 12.1691 10.4115 12.3597C10.4115 12.6267 10.4954 12.7411 10.6975 12.7411C10.9035 12.7411 11.0217 12.5962 11.0217 12.3483V12.1614L11.2009 12.1347C11.5823 12.0775 11.9255 11.8258 12.0971 11.475C12.2153 11.2309 12.2191 10.8 12.1009 10.5483C11.9941 10.308 11.7882 10.0907 11.567 9.98008C11.4068 9.9 11.3115 9.88474 10.831 9.86186C10.5259 9.85042 10.2323 9.81991 10.1789 9.79703C10.1255 9.77797 10.0263 9.69788 9.96151 9.62161C9.86617 9.51102 9.83948 9.44619 9.83948 9.31653C9.83948 9.11441 9.96151 8.91992 10.1446 8.82839C10.3314 8.73305 11.0446 8.73305 11.239 8.82458C11.3916 8.89704 11.5174 9.07627 11.5174 9.22119C11.5174 9.38898 11.6509 9.52246 11.8225 9.52246C12.0132 9.52246 12.1276 9.40805 12.1276 9.22119C12.1276 8.72161 11.7539 8.28687 11.2429 8.18009L11.0217 8.13433V7.95509C11.0217 7.66908 10.8005 7.48221 10.5755 7.57755Z" fill="#FBFBFB"/>
</svg>
