<svg width="20" height="18" viewBox="0 0 20 18" fill="none" xmlns="http://www.w3.org/2000/svg">
<path d="M10.2227 17.0947C10.4502 16.9548 10.7484 16.759 11.082 16.5303C11.7495 16.0726 12.5332 15.502 13.1338 15.0254V15.0244C16.7726 12.1303 18.7597 9.33499 19.1855 6.89844L19.2217 6.66406C19.2501 6.44307 19.2586 6.04626 19.2412 5.61621C19.2237 5.18487 19.1836 4.79783 19.1396 4.59473C18.7095 2.66918 17.5236 1.37304 15.8906 0.901367L15.5605 0.818359C15.4007 0.785021 15.0616 0.759766 14.6689 0.759766C14.2779 0.759782 13.9326 0.784828 13.7617 0.819336H13.7607C12.7373 1.03256 11.6666 1.57164 10.7842 2.33984L10.7822 2.3418L10.4893 2.59473L9.99805 3.01855L9.50781 2.59473L9.21484 2.3418L9.21387 2.34082C8.34094 1.5836 7.30885 1.0541 6.3252 0.842773L6.32324 0.841797C6.20635 0.816421 5.89966 0.784837 5.54492 0.765625C5.1823 0.74599 4.90048 0.747423 4.82129 0.757812C4.21681 0.841875 3.68794 1.01375 3.19434 1.2793H3.19531C2.00127 1.92774 1.19448 3.03879 0.842773 4.65332C0.80706 4.82433 0.772712 5.20285 0.757812 5.63867C0.743058 6.07059 0.750764 6.46589 0.775391 6.66406C1.11125 9.15862 3.10285 12.033 6.875 15.0332C7.47122 15.5074 8.25254 16.0758 8.91895 16.5322C9.25207 16.7604 9.55018 16.9561 9.77734 17.0957C9.86643 17.1505 9.94026 17.1934 9.99805 17.2256C10.0563 17.1933 10.132 17.1505 10.2227 17.0947Z" stroke="#119AE8" stroke-width="1.5"/>
</svg>
