<svg width="24" height="24" viewBox="0 0 24 24" fill="none" xmlns="http://www.w3.org/2000/svg">
<g clip-path="url(#clip0_454_2420)">
<path d="M11.0558 1.01865C10.524 1.07659 9.78912 1.20212 9.28633 1.32765C5.38489 2.30293 2.29081 5.3929 1.31424 9.28917C1.05801 10.3127 1 10.81 1 11.9977C1 13.1903 1.05801 13.6827 1.31908 14.7208C2.49869 19.4185 6.68054 22.7982 11.5634 22.9913C14.7493 23.1168 17.795 21.8808 19.9899 19.5778C21.5611 17.9315 22.528 15.9471 22.9051 13.6151C23.0308 12.862 23.0308 11.119 22.9099 10.3803C22.499 7.88902 21.4161 5.78398 19.6805 4.1038C18.0368 2.51053 16.0691 1.52077 13.7631 1.1297C13.2023 1.03314 11.5585 0.965544 11.0558 1.01865ZM12.8203 2.5395C16.7121 2.89678 19.9754 5.56188 21.1018 9.294C21.7545 11.4522 21.6046 13.7841 20.6764 15.8602C20.222 16.8838 19.6757 17.6852 18.8683 18.5253C17.9884 19.4378 17.2729 19.9737 16.2093 20.5C13.9323 21.6298 11.3362 21.7988 8.92858 20.978C6.55 20.162 4.56303 18.4143 3.46559 16.174C2.73559 14.6725 2.38267 12.8958 2.51803 11.3363C2.71625 8.95603 3.65897 6.91375 5.31237 5.26254C7.27034 3.30717 10.084 2.28361 12.8203 2.5395Z" fill="#7E7E7E"/>
<path d="M14.5365 7.68622C14.3577 7.72968 10.5287 9.20707 10.258 9.33743C9.9196 9.49676 9.49416 9.92163 9.33462 10.2596C9.26211 10.4044 8.86084 11.4039 8.44024 12.4805C7.73924 14.2814 7.67639 14.4649 7.65705 14.8077C7.63771 15.1311 7.65222 15.2132 7.76825 15.4594C7.92295 15.8022 8.126 16.0195 8.44508 16.1885C8.65296 16.2995 8.74965 16.3188 9.09773 16.3188H9.50866L11.4908 15.5512C12.5834 15.1311 13.589 14.7304 13.734 14.6628C14.0676 14.4987 14.5027 14.0641 14.6671 13.731C14.7348 13.5861 15.136 12.5916 15.5566 11.5149C16.2625 9.70919 16.3205 9.53055 16.3398 9.19259C16.3591 8.86428 16.3446 8.7822 16.2238 8.52148C16.0642 8.1642 15.7693 7.889 15.4019 7.74899C15.1554 7.65725 14.7686 7.62829 14.5365 7.68622ZM14.8024 9.21673C14.8024 9.22638 14.464 10.1003 14.0531 11.1576C13.4391 12.7461 13.2844 13.1033 13.1635 13.1999C13.033 13.3109 9.30562 14.8125 9.23793 14.7883C9.2186 14.7787 9.53767 13.9048 9.9486 12.8426C10.5626 11.2445 10.7125 10.8921 10.8333 10.7955C10.9107 10.7279 11.8196 10.3465 12.8493 9.94094C14.6961 9.22155 14.8024 9.1781 14.8024 9.21673Z" fill="#7E7E7E"/>
</g>
<defs>
<clipPath id="clip0_454_2420">
<rect width="24" height="24" fill="white"/>
</clipPath>
</defs>
</svg>
