<svg width="24" height="24" viewBox="0 0 24 24" fill="none" xmlns="http://www.w3.org/2000/svg">
<g clip-path="url(#clip0_454_2429)">
<path d="M11.3666 1.0386C9.51335 1.16385 7.7258 1.83041 6.24055 2.96221C4.15945 4.54584 2.80564 6.86313 2.43323 9.49804C2.3938 9.76198 2.36313 10.0885 2.36313 10.2272V10.4777L2.07835 10.6567C1.57012 10.9877 1.21962 11.4709 1.07066 12.0479C0.97427 12.4103 0.978651 15.497 1.07066 15.8683C1.17143 16.2575 1.3423 16.5483 1.66651 16.8838C2.29303 17.5325 3.23938 17.7606 3.91848 17.4341C4.19012 17.2999 4.52309 16.9554 4.65453 16.6602C4.75092 16.4499 4.75092 16.4231 4.75092 13.9447V11.4395L4.62824 11.189C4.43547 10.7819 4.01487 10.442 3.61617 10.3659L3.44968 10.3301L3.48035 9.98118C3.55045 9.12673 3.84838 8.04414 4.24707 7.18075C5.08828 5.36002 6.48152 3.91507 8.25593 3.02932C11.4586 1.42779 15.2528 2.01382 17.8772 4.519C19.3449 5.92369 20.3482 7.99493 20.5278 10.0035L20.5585 10.3301L20.3876 10.3614C19.989 10.442 19.5683 10.7819 19.3756 11.189L19.2529 11.4395V13.9447C19.2529 16.4186 19.2529 16.4544 19.3493 16.6602C19.5464 17.0941 20.116 17.5459 20.4709 17.5459H20.5892V18.1588C20.5892 18.8567 20.5235 19.2011 20.3307 19.5948C20.0722 20.1137 19.6165 20.5029 19.0645 20.6774C18.8192 20.7534 18.657 20.7669 17.8334 20.7669H16.8826L16.8301 20.6237C16.7381 20.3642 16.4051 20.0242 16.0852 19.8632L15.7917 19.7156H14.5649H13.3382L13.049 19.8587C12.7029 20.0332 12.4357 20.315 12.2735 20.6684C12.1728 20.8876 12.1553 20.9816 12.1553 21.3484C12.1596 21.7242 12.1728 21.8047 12.2823 22.0373C12.4357 22.3594 12.7073 22.6457 13.0008 22.7978C13.3382 22.9723 13.7413 23.017 14.784 22.9947C15.6033 22.9768 15.7304 22.9634 15.9538 22.8739C16.2649 22.7486 16.6592 22.3952 16.7994 22.1044L16.9045 21.8942L18.013 21.8763C19.0075 21.8584 19.1521 21.845 19.4062 21.76C20.2781 21.4602 20.9616 20.8608 21.334 20.0735C21.6056 19.4964 21.6451 19.2861 21.6714 18.2706L21.6976 17.3625L21.8773 17.2686C22.3242 17.0359 22.828 16.3515 22.9507 15.8012C23.0252 15.4747 23.012 12.3432 22.9332 12.0479C22.7842 11.4709 22.4337 10.9877 21.9255 10.6567L21.6407 10.4777V10.2317C21.6407 9.83803 21.5136 9.02384 21.3515 8.37518C20.9353 6.71998 20.0897 5.1945 18.9112 3.9777C17.4653 2.48355 15.7128 1.53516 13.7325 1.1728C13.3338 1.09675 12.0501 0.98044 11.8924 1.00281C11.8705 1.00281 11.6339 1.0207 11.3666 1.0386ZM3.45845 11.4932C3.52855 11.5335 3.60303 11.614 3.62932 11.6722C3.69942 11.8287 3.69503 16.0696 3.62493 16.2262C3.56798 16.3515 3.38396 16.4723 3.24815 16.4723C2.86698 16.4723 2.38504 16.1323 2.2054 15.7341C2.10025 15.5149 2.10025 15.4926 2.10025 13.9447C2.10025 12.3924 2.10025 12.379 2.2054 12.1553C2.29741 11.954 2.45076 11.7795 2.68296 11.5961C2.76621 11.5335 3.11671 11.4261 3.25253 11.4217C3.30072 11.4172 3.39273 11.4485 3.45845 11.4932ZM21.185 11.529C21.4041 11.623 21.6889 11.9137 21.7984 12.1553C21.9036 12.3745 21.9036 12.3969 21.9036 13.9447C21.9036 15.4926 21.9036 15.5149 21.7984 15.7341C21.6188 16.1323 21.1368 16.4723 20.7557 16.4723C20.6199 16.4723 20.4358 16.3515 20.3789 16.2262C20.3 16.0473 20.3088 11.793 20.3876 11.6453C20.5103 11.4172 20.817 11.3724 21.185 11.529ZM15.6296 20.9011C15.7085 20.9503 15.8048 21.0576 15.8443 21.1471C15.9407 21.3574 15.8706 21.6168 15.669 21.76C15.5376 21.8584 15.485 21.8629 14.6526 21.8763C13.6405 21.8942 13.4872 21.8629 13.3251 21.6168C13.1498 21.3574 13.2681 20.9771 13.5573 20.8563C13.6055 20.834 14.0611 20.8161 14.5649 20.8161C15.4105 20.8116 15.4982 20.8205 15.6296 20.9011Z" fill="#7E7E7E"/>
<path d="M8.04127 6.29929C7.46294 6.44244 6.90214 6.88532 6.62612 7.41767C6.35448 7.9366 6.3501 7.99923 6.3501 10.8176C6.3501 12.3296 6.36762 13.4704 6.39391 13.6135C6.46401 13.9893 6.72689 14.4903 7.00729 14.7766C7.37531 15.1569 8.00622 15.4432 8.46187 15.4432H8.62835V16.1679C8.62835 16.8031 8.6415 16.9239 8.72036 17.0984C8.89561 17.4965 9.20668 17.7157 9.64481 17.756C10.1092 17.8007 10.1837 17.747 11.4017 16.5302L12.4926 15.4432H14.1006C15.3843 15.4432 15.7567 15.4298 15.9582 15.3761C16.7731 15.1613 17.3953 14.5172 17.588 13.694C17.6844 13.269 17.6844 8.40184 17.588 7.97686C17.3996 7.15821 16.7425 6.48717 15.9407 6.29481C15.5376 6.20087 8.43558 6.20087 8.04127 6.29929ZM15.7917 7.42214C16.0765 7.52056 16.3876 7.83818 16.484 8.12896C16.5497 8.32132 16.5584 8.63 16.5584 10.8354C16.5584 13.5732 16.5584 13.5598 16.2912 13.8909C16.2167 13.9803 16.0634 14.1101 15.9538 14.1816L15.7479 14.3024L13.8859 14.3293C12.8607 14.3427 12.0151 14.3561 12.0019 14.3606C11.9932 14.3651 11.4762 14.8885 10.854 15.5192L9.72367 16.6689V15.7429C9.72367 14.3919 9.70615 14.3651 8.80361 14.3248C8.30414 14.3024 8.22966 14.2845 8.05003 14.1772C7.93611 14.1101 7.78715 13.9803 7.71267 13.8909C7.44541 13.5598 7.44541 13.5732 7.44541 10.8354C7.44541 7.99475 7.43665 8.06633 7.79591 7.6995C8.15518 7.33267 7.92735 7.35504 11.9844 7.35057C15.2309 7.34609 15.5989 7.35504 15.7917 7.42214Z" fill="#7E7E7E"/>
<path d="M9.05774 10.2094C8.78172 10.3615 8.69409 10.536 8.69409 10.9252C8.69409 11.207 8.71162 11.2831 8.79486 11.4083C9.1366 11.896 9.92085 11.8154 10.1662 11.2652C10.3239 10.9118 10.2232 10.5092 9.92085 10.2721C9.70178 10.1021 9.30309 10.0752 9.05774 10.2094Z" fill="#7E7E7E"/>
<path d="M11.6733 10.1826C11.6032 10.2184 11.4893 10.2989 11.4236 10.3705C10.9504 10.8894 11.3097 11.7305 11.9975 11.7305C12.6942 11.7305 13.0534 10.8894 12.5803 10.3705C12.3568 10.1289 11.9669 10.0484 11.6733 10.1826Z" fill="#7E7E7E"/>
<path d="M14.2145 10.1825C13.9604 10.2988 13.7545 10.6344 13.7545 10.9341C13.7589 11.1533 13.8991 11.4351 14.0875 11.5783C14.2321 11.6901 14.289 11.708 14.5431 11.708C15.0733 11.708 15.3581 11.3993 15.323 10.8625C15.3055 10.5315 15.1872 10.3391 14.9375 10.2094C14.7403 10.1065 14.4117 10.0931 14.2145 10.1825Z" fill="#7E7E7E"/>
</g>
<defs>
<clipPath id="clip0_454_2429">
<rect width="24" height="24" fill="white"/>
</clipPath>
</defs>
</svg>
